<mxfile modified="2021-02-21T21:28:44.123Z" host="app.diagrams.net" agent="5.0 (X11; Linux x86_64) AppleWebKit/537.36 (KHTML, like Gecko) Chrome/83.0.4103.116 Safari/537.36" etag="o83D2BxEbfqJJi9O-L-R" version="14.4.2" type="github">
  <diagram id="f106602c-feb2-e66a-4537-3a34d633f6aa" name="Page-1">
    <mxGraphModel dx="1182" dy="744" grid="1" gridSize="10" guides="1" tooltips="1" connect="1" arrows="1" fold="1" page="1" pageScale="1" pageWidth="1169" pageHeight="827" background="#ffffff" math="0" shadow="0">
      <root>
        <mxCell id="0" />
        <mxCell id="1" parent="0" />
        <mxCell id="14" value="&lt;div&gt;Microservices&lt;/div&gt;" style="fillColor=#F6F6F6;strokeColor=none;shadow=0;gradientColor=none;fontSize=14;align=left;spacing=10;fontColor=#717171;9E9E9E;verticalAlign=top;spacingTop=-4;fontStyle=0;spacingLeft=40;html=1;" parent="1" vertex="1">
          <mxGeometry x="600" y="109.5" width="520" height="321" as="geometry" />
        </mxCell>
        <mxCell id="818" value="Architecture: Neptune microservices" style="fillColor=#4DA1F5;strokeColor=none;shadow=1;gradientColor=none;fontSize=14;align=left;spacingLeft=50;fontColor=#ffffff;html=1;" parent="1" vertex="1">
          <mxGeometry x="230" y="40" width="720" height="40" as="geometry" />
        </mxCell>
        <mxCell id="1046" style="edgeStyle=orthogonalEdgeStyle;rounded=0;html=1;labelBackgroundColor=none;startFill=1;startSize=4;endArrow=blockThin;endFill=1;endSize=4;jettySize=auto;orthogonalLoop=1;strokeColor=#4284F3;strokeWidth=2;fontSize=12;fontColor=#000000;align=left;dashed=0;" parent="1" source="1036" edge="1">
          <mxGeometry relative="1" as="geometry">
            <Array as="points">
              <mxPoint x="440" y="268" />
              <mxPoint x="440" y="268" />
            </Array>
            <mxPoint x="440" y="268" as="targetPoint" />
          </mxGeometry>
        </mxCell>
        <mxCell id="1036" value="&lt;div&gt;Client&lt;/div&gt;&lt;div&gt;(crossplatform)&lt;/div&gt;" style="strokeColor=#dddddd;fillColor=#FFFFFF;shadow=1;strokeWidth=1;rounded=1;absoluteArcSize=1;arcSize=2;labelPosition=center;verticalLabelPosition=middle;align=center;verticalAlign=bottom;spacingLeft=0;fontColor=#999999;fontSize=12;whiteSpace=wrap;spacingBottom=2;html=1;" parent="1" vertex="1">
          <mxGeometry x="290" y="218" width="90" height="100" as="geometry" />
        </mxCell>
        <mxCell id="1037" value="" style="dashed=0;connectable=0;html=1;fillColor=#757575;strokeColor=none;shape=mxgraph.gcp2.desktop_and_mobile;part=1;" parent="1036" vertex="1">
          <mxGeometry x="0.5" width="50" height="33" relative="1" as="geometry">
            <mxPoint x="-25" y="18.5" as="offset" />
          </mxGeometry>
        </mxCell>
        <mxCell id="1048" style="edgeStyle=orthogonalEdgeStyle;rounded=0;html=1;labelBackgroundColor=none;startFill=1;startSize=4;endArrow=blockThin;endFill=1;endSize=4;jettySize=auto;orthogonalLoop=1;strokeColor=#4284F3;strokeWidth=2;fontSize=12;fontColor=#000000;align=left;dashed=0;startArrow=blockThin;" parent="1" edge="1">
          <mxGeometry relative="1" as="geometry">
            <mxPoint x="550" y="268" as="sourcePoint" />
            <mxPoint x="600" y="268" as="targetPoint" />
            <Array as="points">
              <mxPoint x="570" y="268" />
              <mxPoint x="570" y="268" />
            </Array>
          </mxGeometry>
        </mxCell>
        <mxCell id="jZHIwr5iZr9cgqpVcMpj-1056" style="edgeStyle=orthogonalEdgeStyle;rounded=0;orthogonalLoop=1;jettySize=auto;html=1;exitX=1;exitY=0.5;exitDx=0;exitDy=0;exitPerimeter=0;" parent="1" source="jZHIwr5iZr9cgqpVcMpj-1052" target="jZHIwr5iZr9cgqpVcMpj-1053" edge="1">
          <mxGeometry relative="1" as="geometry" />
        </mxCell>
        <mxCell id="jZHIwr5iZr9cgqpVcMpj-1052" value="&lt;div&gt;App logic&lt;br&gt;&lt;/div&gt;" style="points=[[0,0,0],[0.25,0,0],[0.5,0,0],[0.75,0,0],[1,0,0],[1,0.25,0],[1,0.5,0],[1,0.75,0],[1,1,0],[0.75,1,0],[0.5,1,0],[0.25,1,0],[0,1,0],[0,0.75,0],[0,0.5,0],[0,0.25,0]];rounded=1;absoluteArcSize=1;arcSize=2;html=1;strokeColor=none;gradientColor=none;shadow=0;dashed=0;fontSize=12;fontColor=#9E9E9E;align=left;verticalAlign=top;spacing=10;spacingTop=-4;" parent="1" vertex="1">
          <mxGeometry x="750" y="149" width="220" height="242" as="geometry" />
        </mxCell>
        <mxCell id="jZHIwr5iZr9cgqpVcMpj-1055" style="edgeStyle=orthogonalEdgeStyle;rounded=0;orthogonalLoop=1;jettySize=auto;html=1;exitX=1;exitY=0.5;exitDx=0;exitDy=0;entryX=-0.011;entryY=0.59;entryDx=0;entryDy=0;entryPerimeter=0;" parent="1" source="jZHIwr5iZr9cgqpVcMpj-1053" target="1036" edge="1">
          <mxGeometry relative="1" as="geometry">
            <mxPoint x="1147" y="460" as="targetPoint" />
            <Array as="points">
              <mxPoint x="1130" y="270" />
              <mxPoint x="1130" y="450" />
              <mxPoint x="270" y="450" />
              <mxPoint x="270" y="277" />
            </Array>
          </mxGeometry>
        </mxCell>
        <mxCell id="jZHIwr5iZr9cgqpVcMpj-1053" value="" style="strokeColor=#dddddd;shadow=1;strokeWidth=1;rounded=1;absoluteArcSize=1;arcSize=2;fillColor=#CCCCCC;" parent="1" vertex="1">
          <mxGeometry x="1000" y="242" width="110" height="56" as="geometry" />
        </mxCell>
        <mxCell id="jZHIwr5iZr9cgqpVcMpj-1054" value="&lt;div&gt;Websocket&lt;/div&gt;&lt;div&gt;Event&lt;/div&gt;&lt;div&gt;Service&lt;/div&gt;" style="dashed=0;connectable=0;html=1;fillColor=#757575;strokeColor=none;shape=mxgraph.gcp2.push_notification_service;part=1;labelPosition=right;verticalLabelPosition=middle;align=left;verticalAlign=middle;spacingLeft=5;fontSize=12;" parent="jZHIwr5iZr9cgqpVcMpj-1053" vertex="1">
          <mxGeometry y="0.5" width="32" height="32" relative="1" as="geometry">
            <mxPoint x="5" y="-16" as="offset" />
          </mxGeometry>
        </mxCell>
        <mxCell id="jZHIwr5iZr9cgqpVcMpj-1062" value="" style="strokeColor=#dddddd;shadow=1;strokeWidth=1;rounded=1;absoluteArcSize=1;arcSize=2;fillColor=#CCCCCC;" parent="1" vertex="1">
          <mxGeometry x="440" y="110" width="100" height="320" as="geometry" />
        </mxCell>
        <mxCell id="jZHIwr5iZr9cgqpVcMpj-1063" value="Gateway" style="dashed=0;connectable=0;html=1;fillColor=#757575;strokeColor=none;shape=mxgraph.gcp2.gateway;part=1;labelPosition=right;verticalLabelPosition=middle;align=left;verticalAlign=middle;spacingLeft=5;fontSize=12;" parent="jZHIwr5iZr9cgqpVcMpj-1062" vertex="1">
          <mxGeometry y="0.5" width="32" height="32" relative="1" as="geometry">
            <mxPoint x="5" y="-16" as="offset" />
          </mxGeometry>
        </mxCell>
        <mxCell id="jZHIwr5iZr9cgqpVcMpj-1064" value="Guild" style="dashed=0;strokeColor=#dddddd;shadow=1;strokeWidth=1;labelPosition=center;verticalLabelPosition=middle;align=left;verticalAlign=middle;spacingLeft=5;fontSize=12;fillColor=#E6E6E6;" parent="1" vertex="1">
          <mxGeometry x="760" y="198" width="90" height="44" as="geometry" />
        </mxCell>
        <mxCell id="jZHIwr5iZr9cgqpVcMpj-1065" value="Message" style="dashed=0;strokeColor=#dddddd;shadow=1;strokeWidth=1;labelPosition=center;verticalLabelPosition=middle;align=left;verticalAlign=middle;spacingLeft=5;fontSize=12;fillColor=#E6E6E6;" parent="1" vertex="1">
          <mxGeometry x="870" y="198" width="90" height="44" as="geometry" />
        </mxCell>
        <mxCell id="jZHIwr5iZr9cgqpVcMpj-1066" value="Friends request" style="dashed=0;strokeColor=#dddddd;shadow=1;strokeWidth=1;labelPosition=center;verticalLabelPosition=middle;align=left;verticalAlign=middle;spacingLeft=5;fontSize=12;fillColor=#E6E6E6;" parent="1" vertex="1">
          <mxGeometry x="760" y="274" width="90" height="44" as="geometry" />
        </mxCell>
        <mxCell id="jZHIwr5iZr9cgqpVcMpj-1068" value="User info&#xa;(username...)&#xa;" style="dashed=0;strokeColor=#dddddd;shadow=1;strokeWidth=1;labelPosition=center;verticalLabelPosition=middle;align=left;verticalAlign=middle;spacingLeft=5;fontSize=12;fillColor=#E6E6E6;" parent="1" vertex="1">
          <mxGeometry x="870" y="274" width="90" height="44" as="geometry" />
        </mxCell>
        <mxCell id="jZHIwr5iZr9cgqpVcMpj-1071" style="edgeStyle=orthogonalEdgeStyle;rounded=0;orthogonalLoop=1;jettySize=auto;html=1;entryX=0.5;entryY=1;entryDx=0;entryDy=0;" parent="1" source="jZHIwr5iZr9cgqpVcMpj-1069" target="jZHIwr5iZr9cgqpVcMpj-1053" edge="1">
          <mxGeometry relative="1" as="geometry">
            <mxPoint x="1055" y="320" as="targetPoint" />
            <Array as="points">
              <mxPoint x="670" y="410" />
              <mxPoint x="1055" y="410" />
            </Array>
          </mxGeometry>
        </mxCell>
        <mxCell id="jZHIwr5iZr9cgqpVcMpj-1069" value="Auth" style="dashed=0;strokeColor=#dddddd;shadow=1;strokeWidth=1;labelPosition=center;verticalLabelPosition=middle;align=left;verticalAlign=middle;spacingLeft=5;fontSize=12;fillColor=#E6E6E6;" parent="1" vertex="1">
          <mxGeometry x="620" y="330" width="100" height="44" as="geometry" />
        </mxCell>
        <mxCell id="jZHIwr5iZr9cgqpVcMpj-1073" value="Others" style="points=[[0,0,0],[0.25,0,0],[0.5,0,0],[0.75,0,0],[1,0,0],[1,0.25,0],[1,0.5,0],[1,0.75,0],[1,1,0],[0.75,1,0],[0.5,1,0],[0.25,1,0],[0,1,0],[0,0.75,0],[0,0.5,0],[0,0.25,0]];rounded=1;absoluteArcSize=1;arcSize=2;html=1;strokeColor=none;gradientColor=none;shadow=0;dashed=0;fontSize=12;fontColor=#9E9E9E;align=left;verticalAlign=top;spacing=10;spacingTop=-4;" parent="1" vertex="1">
          <mxGeometry x="610" y="149" width="120" height="91" as="geometry" />
        </mxCell>
        <mxCell id="jZHIwr5iZr9cgqpVcMpj-1074" value="Blog" style="dashed=0;strokeColor=#dddddd;shadow=1;strokeWidth=1;labelPosition=center;verticalLabelPosition=middle;align=left;verticalAlign=middle;spacingLeft=5;fontSize=12;fillColor=#E6E6E6;" parent="1" vertex="1">
          <mxGeometry x="620" y="180" width="100" height="44" as="geometry" />
        </mxCell>
      </root>
    </mxGraphModel>
  </diagram>
</mxfile>
